{
	"asset":{
		"generator":"Khronos glTF Blender I/O v4.2.70",
		"version":"2.0"
	},
	"extensionsUsed":[
		"KHR_materials_specular"
	],
	"scene":0,
	"scenes":[
		{
			"name":"Scene",
			"nodes":[
				0,
				1,
				2,
				3,
				4,
				5,
				6,
				7
			]
		}
	],
	"nodes":[
		{
			"camera":0,
			"name":"Camera",
			"rotation":[
				-0.20997297763824463,
				0.38577988743782043,
				0.09062843024730682,
				0.8937962651252747
			],
			"scale":[
				12.45615005493164,
				12.456148147583008,
				12.45615005493164
			],
			"translation":[
				75.28813171386719,
				46.20661544799805,
				77.79066467285156
			]
		},
		{
			"mesh":0,
			"name":"Deblo",
			"rotation":[
				0.7071068286895752,
				0,
				0,
				0.7071068286895752
			],
			"scale":[
				12.456151008605957,
				12.456151008605957,
				12.456151008605957
			],
			"translation":[
				-16.37533187866211,
				-15.554834365844727,
				-8.478034019470215
			]
		},
		{
			"mesh":1,
			"name":"Deblo.001",
			"rotation":[
				0.7071068286895752,
				0,
				0,
				0.7071068286895752
			],
			"scale":[
				12.456151008605957,
				12.456151008605957,
				12.456151008605957
			],
			"translation":[
				-16.37533187866211,
				-15.554834365844727,
				-8.478034019470215
			]
		},
		{
			"mesh":2,
			"name":"listi",
			"rotation":[
				0.7071068286895752,
				0,
				0,
				0.7071068286895752
			],
			"scale":[
				12.456151008605957,
				12.456151008605957,
				12.456151008605957
			],
			"translation":[
				-16.37533187866211,
				-15.554834365844727,
				-8.478034019470215
			]
		},
		{
			"mesh":3,
			"name":"listi.001",
			"rotation":[
				0.7071068286895752,
				0,
				0,
				0.7071068286895752
			],
			"scale":[
				12.456151008605957,
				12.456151008605957,
				12.456151008605957
			],
			"translation":[
				-16.37533187866211,
				-15.554834365844727,
				-8.478034019470215
			]
		},
		{
			"mesh":4,
			"name":"morje",
			"rotation":[
				0.7071068286895752,
				0,
				0,
				0.7071068286895752
			],
			"scale":[
				12.456151008605957,
				12.456151008605957,
				12.456151008605957
			],
			"translation":[
				-16.292020797729492,
				-13.981319427490234,
				-8.147984504699707
			]
		},
		{
			"mesh":5,
			"name":"otok",
			"rotation":[
				0.7071068286895752,
				0,
				0,
				0.7071068286895752
			],
			"scale":[
				12.456151008605957,
				12.456151008605957,
				12.456151008605957
			],
			"translation":[
				-16.37533187866211,
				-15.554834365844727,
				-8.478034019470215
			]
		},
		{
			"mesh":6,
			"name":"Person",
			"rotation":[
				0,
				-0.7071068286895752,
				0.7071068286895752,
				3.090862321641907e-08
			],
			"scale":[
				1.0496807098388672,
				1.049680471420288,
				1.049680471420288
			]
		}
	],
	"cameras":[
		{
			"name":"Camera",
			"perspective":{
				"aspectRatio":1.7777777777777777,
				"yfov":0.39959652046304894,
				"zfar":100,
				"znear":0.10000000149011612
			},
			"type":"perspective"
		}
	],
	"materials":[
		{
			"doubleSided":true,
			"name":"Material.006",
			"pbrMetallicRoughness":{
				"baseColorTexture":{
					"index":0
				},
				"metallicFactor":0,
				"roughnessFactor":0.5
			}
		},
		{
			"doubleSided":true,
			"extensions":{
				"KHR_materials_specular":{
					"specularFactor":0
				}
			},
			"name":"Material.003",
			"pbrMetallicRoughness":{
				"baseColorTexture":{
					"index":1
				},
				"metallicFactor":0
			}
		},
		{
			"doubleSided":true,
			"extensions":{
				"KHR_materials_specular":{
					"specularFactor":0
				}
			},
			"name":"Material.002",
			"pbrMetallicRoughness":{
				"baseColorTexture":{
					"index":2
				},
				"metallicFactor":0
			}
		},
		{
			"doubleSided":true,
			"extensions":{
				"KHR_materials_specular":{
					"specularFactor":0
				}
			},
			"name":"Material.005",
			"pbrMetallicRoughness":{
				"baseColorTexture":{
					"index":3
				},
				"metallicFactor":0
			}
		},
		{
			"doubleSided":true,
			"name":"Material.004",
			"pbrMetallicRoughness":{
				"baseColorTexture":{
					"index":4
				},
				"metallicFactor":0,
				"roughnessFactor":0.5
			}
		},
		{
			"doubleSided":true,
			"extensions":{
				"KHR_materials_specular":{
					"specularFactor":0
				}
			},
			"name":"Material.001",
			"pbrMetallicRoughness":{
				"baseColorTexture":{
					"index":5
				},
				"metallicFactor":0
			}
		},
		{
			"doubleSided":true,
			"extensions":{
				"KHR_materials_specular":{
					"specularFactor":0
				}
			},
			"name":"default.003",
			"pbrMetallicRoughness":{
				"baseColorTexture":{
					"index":6
				},
				"metallicFactor":0
			}
		}
	],
	"meshes":[
		{
			"name":"Deblo",
			"primitives":[
				{
					"attributes":{
						"POSITION":0,
						"NORMAL":1,
						"TEXCOORD_0":2
					},
					"indices":3,
					"material":0
				}
			]
		},
		{
			"name":"Deblo.001",
			"primitives":[
				{
					"attributes":{
						"POSITION":4,
						"NORMAL":5,
						"TEXCOORD_0":6
					},
					"indices":7,
					"material":1
				}
			]
		},
		{
			"name":"listi",
			"primitives":[
				{
					"attributes":{
						"POSITION":8,
						"NORMAL":9,
						"TEXCOORD_0":10
					},
					"indices":11,
					"material":2
				}
			]
		},
		{
			"name":"listi.001",
			"primitives":[
				{
					"attributes":{
						"POSITION":12,
						"NORMAL":13,
						"TEXCOORD_0":14
					},
					"indices":15,
					"material":3
				}
			]
		},
		{
			"name":"morje",
			"primitives":[
				{
					"attributes":{
						"POSITION":16,
						"NORMAL":17,
						"TEXCOORD_0":18
					},
					"indices":19,
					"material":4
				}
			]
		},
		{
			"name":"otok",
			"primitives":[
				{
					"attributes":{
						"POSITION":20,
						"NORMAL":21,
						"TEXCOORD_0":22
					},
					"indices":23,
					"material":5
				}
			]
		},
		{
			"name":"Person.001",
			"primitives":[
				{
					"attributes":{
						"POSITION":24,
						"NORMAL":25
					},
					"indices":26,
					"material":6
				}
			]
		}
	],
	"textures":[
		{
			"sampler":0,
			"source":0
		},
		{
			"sampler":0,
			"source":0
		},
		{
			"sampler":0,
			"source":1
		},
		{
			"sampler":0,
			"source":1
		},
		{
			"sampler":0,
			"source":2
		},
		{
			"sampler":0,
			"source":3
		},
		{
			"sampler":0,
			"source":4
		}
	],
	"images":[
		{
			"mimeType":"image/jpeg",
			"name":"plvs1c",
			"uri":"plvs1c.jpg"
		},
		{
			"mimeType":"image/jpeg",
			"name":"lv1",
			"uri":"lv1.jpg"
		},
		{
			"mimeType":"image/jpeg",
			"name":"water",
			"uri":"water.jpg"
		},
		{
			"mimeType":"image/jpeg",
			"name":"snd1",
			"uri":"snd1.jpg"
		},
		{
			"mimeType":"image/png",
			"name":"base",
			"uri":"base.png"
		}
	],
	"accessors":[
		{
			"bufferView":0,
			"componentType":5126,
			"count":2558,
			"max":[
				0.1605670005083084,
				0.1605670005083084,
				-0.009872999973595142
			],
			"min":[
				-0.1605670005083084,
				-0.1605670005083084,
				-3.6237258911132812
			],
			"type":"VEC3"
		},
		{
			"bufferView":1,
			"componentType":5126,
			"count":2558,
			"type":"VEC3"
		},
		{
			"bufferView":2,
			"componentType":5126,
			"count":2558,
			"type":"VEC2"
		},
		{
			"bufferView":3,
			"componentType":5123,
			"count":3948,
			"type":"SCALAR"
		},
		{
			"bufferView":4,
			"componentType":5126,
			"count":2950,
			"max":[
				0.3465209901332855,
				0.1605670005083084,
				0
			],
			"min":[
				-0.1608240008354187,
				-0.3216649889945984,
				-3.6172280311584473
			],
			"type":"VEC3"
		},
		{
			"bufferView":5,
			"componentType":5126,
			"count":2950,
			"type":"VEC3"
		},
		{
			"bufferView":6,
			"componentType":5126,
			"count":2950,
			"type":"VEC2"
		},
		{
			"bufferView":7,
			"componentType":5123,
			"count":3948,
			"type":"SCALAR"
		},
		{
			"bufferView":8,
			"componentType":5126,
			"count":1509,
			"max":[
				1.428846001625061,
				1.4288439750671387,
				-3.1143910884857178
			],
			"min":[
				-1.428846001625061,
				-1.4288469552993774,
				-4.033833980560303
			],
			"type":"VEC3"
		},
		{
			"bufferView":9,
			"componentType":5126,
			"count":1509,
			"type":"VEC3"
		},
		{
			"bufferView":10,
			"componentType":5126,
			"count":1509,
			"type":"VEC2"
		},
		{
			"bufferView":11,
			"componentType":5123,
			"count":2208,
			"type":"SCALAR"
		},
		{
			"bufferView":12,
			"componentType":5126,
			"count":1491,
			"max":[
				1.4409719705581665,
				1.3700859546661377,
				-3.0828800201416016
			],
			"min":[
				-1.401023030281067,
				-1.4603710174560547,
				-4.228631019592285
			],
			"type":"VEC3"
		},
		{
			"bufferView":13,
			"componentType":5126,
			"count":1491,
			"type":"VEC3"
		},
		{
			"bufferView":14,
			"componentType":5126,
			"count":1491,
			"type":"VEC2"
		},
		{
			"bufferView":15,
			"componentType":5123,
			"count":2208,
			"type":"SCALAR"
		},
		{
			"bufferView":16,
			"componentType":5126,
			"count":4,
			"max":[
				14.399999618530273,
				14.399999618530273,
				0
			],
			"min":[
				-14.399999618530273,
				-14.399999618530273,
				0
			],
			"type":"VEC3"
		},
		{
			"bufferView":17,
			"componentType":5126,
			"count":4,
			"type":"VEC3"
		},
		{
			"bufferView":18,
			"componentType":5126,
			"count":4,
			"type":"VEC2"
		},
		{
			"bufferView":19,
			"componentType":5123,
			"count":6,
			"type":"SCALAR"
		},
		{
			"bufferView":20,
			"componentType":5126,
			"count":4225,
			"max":[
				14.395014762878418,
				14.399252891540527,
				2.704206943511963
			],
			"min":[
				-14.404789924621582,
				-14.401294708251953,
				-2.3742430210113525
			],
			"type":"VEC3"
		},
		{
			"bufferView":21,
			"componentType":5126,
			"count":4225,
			"type":"VEC3"
		},
		{
			"bufferView":22,
			"componentType":5126,
			"count":4225,
			"type":"VEC2"
		},
		{
			"bufferView":23,
			"componentType":5123,
			"count":24576,
			"type":"SCALAR"
		},
		{
			"bufferView":24,
			"componentType":5126,
			"count":24461,
			"max":[
				5.842548847198486,
				2.1025567054748535,
				10.006355285644531
			],
			"min":[
				-5.842451572418213,
				-1.6675444841384888,
				-10.734343528747559
			],
			"type":"VEC3"
		},
		{
			"bufferView":25,
			"componentType":5126,
			"count":24461,
			"type":"VEC3"
		},
		{
			"bufferView":26,
			"componentType":5123,
			"count":146754,
			"type":"SCALAR"
		}
	],
	"bufferViews":[
		{
			"buffer":0,
			"byteLength":30696,
			"byteOffset":0,
			"target":34962
		},
		{
			"buffer":0,
			"byteLength":30696,
			"byteOffset":30696,
			"target":34962
		},
		{
			"buffer":0,
			"byteLength":20464,
			"byteOffset":61392,
			"target":34962
		},
		{
			"buffer":0,
			"byteLength":7896,
			"byteOffset":81856,
			"target":34963
		},
		{
			"buffer":0,
			"byteLength":35400,
			"byteOffset":89752,
			"target":34962
		},
		{
			"buffer":0,
			"byteLength":35400,
			"byteOffset":125152,
			"target":34962
		},
		{
			"buffer":0,
			"byteLength":23600,
			"byteOffset":160552,
			"target":34962
		},
		{
			"buffer":0,
			"byteLength":7896,
			"byteOffset":184152,
			"target":34963
		},
		{
			"buffer":0,
			"byteLength":18108,
			"byteOffset":192048,
			"target":34962
		},
		{
			"buffer":0,
			"byteLength":18108,
			"byteOffset":210156,
			"target":34962
		},
		{
			"buffer":0,
			"byteLength":12072,
			"byteOffset":228264,
			"target":34962
		},
		{
			"buffer":0,
			"byteLength":4416,
			"byteOffset":240336,
			"target":34963
		},
		{
			"buffer":0,
			"byteLength":17892,
			"byteOffset":244752,
			"target":34962
		},
		{
			"buffer":0,
			"byteLength":17892,
			"byteOffset":262644,
			"target":34962
		},
		{
			"buffer":0,
			"byteLength":11928,
			"byteOffset":280536,
			"target":34962
		},
		{
			"buffer":0,
			"byteLength":4416,
			"byteOffset":292464,
			"target":34963
		},
		{
			"buffer":0,
			"byteLength":48,
			"byteOffset":296880,
			"target":34962
		},
		{
			"buffer":0,
			"byteLength":48,
			"byteOffset":296928,
			"target":34962
		},
		{
			"buffer":0,
			"byteLength":32,
			"byteOffset":296976,
			"target":34962
		},
		{
			"buffer":0,
			"byteLength":12,
			"byteOffset":297008,
			"target":34963
		},
		{
			"buffer":0,
			"byteLength":50700,
			"byteOffset":297020,
			"target":34962
		},
		{
			"buffer":0,
			"byteLength":50700,
			"byteOffset":347720,
			"target":34962
		},
		{
			"buffer":0,
			"byteLength":33800,
			"byteOffset":398420,
			"target":34962
		},
		{
			"buffer":0,
			"byteLength":49152,
			"byteOffset":432220,
			"target":34963
		},
		{
			"buffer":0,
			"byteLength":293532,
			"byteOffset":481372,
			"target":34962
		},
		{
			"buffer":0,
			"byteLength":293532,
			"byteOffset":774904,
			"target":34962
		},
		{
			"buffer":0,
			"byteLength":293508,
			"byteOffset":1068436,
			"target":34963
		}
	],
	"samplers":[
		{
			"magFilter":9729,
			"minFilter":9987
		}
	],
	"buffers":[
		{
			"byteLength":1361944,
			"uri":"Island.bin"
		}
	]
}
