{
	"asset":{
		"generator":"Khronos glTF Blender I/O v4.2.70",
		"version":"2.0"
	},
	"extensionsUsed":[
		"KHR_materials_specular"
	],
	"scene":0,
	"scenes":[
		{
			"name":"Scene",
			"nodes":[
				0,
				1,
				2,
				3,
				4,
				5,
				6
			]
		}
	],
	"nodes":[
		{
			"camera":0,
			"name":"Camera",
			"rotation":[
				-0.20997299253940582,
				0.3857799470424652,
				0.09062844514846802,
				0.8937962055206299
			],
			"translation":[
				7.358891487121582,
				4.958309173583984,
				6.925790786743164
			]
		},
		{
			"mesh":0,
			"name":"grass",
			"rotation":[
				0.7071068286895752,
				0,
				0,
				0.7071068286895752
			],
			"scale":[
				0.2304190993309021,
				0.2304190993309021,
				0.2304190993309021
			],
			"translation":[
				-2.806711435317993,
				-11.079768180847168,
				-2.95833158493042
			]
		},
		{
			"mesh":1,
			"name":"palm leaves",
			"rotation":[
				0.7071068286895752,
				0,
				0,
				0.7071068286895752
			],
			"scale":[
				0.2304190993309021,
				0.2304190993309021,
				0.2304190993309021
			],
			"translation":[
				-17.233684539794922,
				35.20589065551758,
				-1.0926214456558228
			]
		},
		{
			"mesh":2,
			"name":"palm stems",
			"rotation":[
				0.7071068286895752,
				0,
				0,
				0.7071068286895752
			],
			"scale":[
				0.2304190993309021,
				0.2304190993309021,
				0.2304190993309021
			],
			"translation":[
				-12.097099304199219,
				2.809676170349121,
				-1.12881338596344
			]
		},
		{
			"mesh":3,
			"name":"plants",
			"rotation":[
				0.7071068286895752,
				0,
				0,
				0.7071068286895752
			],
			"scale":[
				0.2304190993309021,
				0.2304190993309021,
				0.2304190993309021
			],
			"translation":[
				4.080843925476074,
				-5.154689788818359,
				2.605703830718994
			]
		},
		{
			"mesh":4,
			"name":"rocks",
			"rotation":[
				0.7071068286895752,
				0,
				0,
				0.7071068286895752
			],
			"scale":[
				0.2304190993309021,
				0.2304190993309021,
				0.2304190993309021
			],
			"translation":[
				14.894485473632812,
				-3.015320062637329,
				0.625714898109436
			]
		},
		{
			"mesh":5,
			"name":"terrain",
			"rotation":[
				0.7071068286895752,
				0,
				0,
				0.7071068286895752
			],
			"scale":[
				0.2304190993309021,
				0.2304190993309021,
				0.2304190993309021
			],
			"translation":[
				9.615699768066406,
				-12.043238639831543,
				1.4019501209259033
			]
		}
	],
	"cameras":[
		{
			"name":"Camera",
			"perspective":{
				"aspectRatio":1.7777777777777777,
				"yfov":0.39959652046304894,
				"zfar":100,
				"znear":0.10000000149011612
			},
			"type":"perspective"
		}
	],
	"materials":[
		{
			"doubleSided":true,
			"extensions":{
				"KHR_materials_specular":{
					"specularFactor":0
				}
			},
			"name":"material_1_grass",
			"pbrMetallicRoughness":{
				"baseColorTexture":{
					"index":0
				},
				"metallicFactor":0
			}
		},
		{
			"doubleSided":true,
			"extensions":{
				"KHR_materials_specular":{
					"specularFactor":0
				}
			},
			"name":"material_1_palm_leaves",
			"pbrMetallicRoughness":{
				"baseColorTexture":{
					"index":1
				},
				"metallicFactor":0
			}
		},
		{
			"doubleSided":true,
			"extensions":{
				"KHR_materials_specular":{
					"specularFactor":0
				}
			},
			"name":"material_1_palm_stems",
			"pbrMetallicRoughness":{
				"baseColorTexture":{
					"index":2
				},
				"metallicFactor":0
			}
		},
		{
			"doubleSided":true,
			"extensions":{
				"KHR_materials_specular":{
					"specularFactor":0
				}
			},
			"name":"material_1_plants",
			"pbrMetallicRoughness":{
				"baseColorTexture":{
					"index":3
				},
				"metallicFactor":0
			}
		},
		{
			"doubleSided":true,
			"extensions":{
				"KHR_materials_specular":{
					"specularFactor":0
				}
			},
			"name":"material_1_rocks",
			"pbrMetallicRoughness":{
				"baseColorTexture":{
					"index":4
				},
				"metallicFactor":0
			}
		},
		{
			"doubleSided":true,
			"extensions":{
				"KHR_materials_specular":{
					"specularFactor":0
				}
			},
			"name":"material_1",
			"pbrMetallicRoughness":{
				"baseColorTexture":{
					"index":5
				},
				"metallicFactor":0
			}
		}
	],
	"meshes":[
		{
			"name":"grass",
			"primitives":[
				{
					"attributes":{
						"POSITION":0,
						"NORMAL":1,
						"TEXCOORD_0":2
					},
					"indices":3,
					"material":0
				}
			]
		},
		{
			"name":"palm leaves",
			"primitives":[
				{
					"attributes":{
						"POSITION":4,
						"NORMAL":5,
						"TEXCOORD_0":6
					},
					"indices":7,
					"material":1
				}
			]
		},
		{
			"name":"palm stems",
			"primitives":[
				{
					"attributes":{
						"POSITION":8,
						"NORMAL":9,
						"TEXCOORD_0":10
					},
					"indices":11,
					"material":2
				}
			]
		},
		{
			"name":"plants",
			"primitives":[
				{
					"attributes":{
						"POSITION":12,
						"NORMAL":13,
						"TEXCOORD_0":14
					},
					"indices":15,
					"material":3
				}
			]
		},
		{
			"name":"rocks",
			"primitives":[
				{
					"attributes":{
						"POSITION":16,
						"NORMAL":17,
						"TEXCOORD_0":18
					},
					"indices":19,
					"material":4
				}
			]
		},
		{
			"name":"terrain",
			"primitives":[
				{
					"attributes":{
						"POSITION":20,
						"NORMAL":21,
						"TEXCOORD_0":22
					},
					"indices":23,
					"material":5
				}
			]
		}
	],
	"textures":[
		{
			"sampler":0,
			"source":0
		},
		{
			"sampler":0,
			"source":1
		},
		{
			"sampler":0,
			"source":2
		},
		{
			"sampler":0,
			"source":3
		},
		{
			"sampler":0,
			"source":4
		},
		{
			"sampler":0,
			"source":5
		}
	],
	"images":[
		{
			"mimeType":"image/jpeg",
			"name":"grs1",
			"uri":"grs1.jpg"
		},
		{
			"mimeType":"image/jpeg",
			"name":"lv1",
			"uri":"lv1.jpg"
		},
		{
			"mimeType":"image/jpeg",
			"name":"plvs1c",
			"uri":"plvs1c.jpg"
		},
		{
			"mimeType":"image/jpeg",
			"name":"arl1b",
			"uri":"arl1b.jpg"
		},
		{
			"mimeType":"image/jpeg",
			"name":"rc1",
			"uri":"rc1.jpg"
		},
		{
			"mimeType":"image/jpeg",
			"name":"snd1",
			"uri":"snd1.jpg"
		}
	],
	"accessors":[
		{
			"bufferView":0,
			"componentType":5126,
			"count":181718,
			"max":[
				180.46400451660156,
				236.8791961669922,
				19.763486862182617
			],
			"min":[
				-100.85100555419922,
				-239.2388153076172,
				-34.06431579589844
			],
			"type":"VEC3"
		},
		{
			"bufferView":1,
			"componentType":5126,
			"count":181718,
			"type":"VEC3"
		},
		{
			"bufferView":2,
			"componentType":5126,
			"count":181718,
			"type":"VEC2"
		},
		{
			"bufferView":3,
			"componentType":5125,
			"count":228480,
			"type":"SCALAR"
		},
		{
			"bufferView":4,
			"componentType":5126,
			"count":156962,
			"max":[
				184.35548400878906,
				216.8151397705078,
				62.845733642578125
			],
			"min":[
				-131.70211791992188,
				-211.70785522460938,
				-71.80227661132812
			],
			"type":"VEC3"
		},
		{
			"bufferView":5,
			"componentType":5126,
			"count":156962,
			"type":"VEC3"
		},
		{
			"bufferView":6,
			"componentType":5126,
			"count":156962,
			"type":"VEC2"
		},
		{
			"bufferView":7,
			"componentType":5125,
			"count":209076,
			"type":"SCALAR"
		},
		{
			"bufferView":8,
			"componentType":5126,
			"count":20834,
			"max":[
				133.84353637695312,
				183.2222137451172,
				66.4581298828125
			],
			"min":[
				-121.02747344970703,
				-182.58078002929688,
				-179.50718688964844
			],
			"type":"VEC3"
		},
		{
			"bufferView":9,
			"componentType":5126,
			"count":20834,
			"type":"VEC3"
		},
		{
			"bufferView":10,
			"componentType":5126,
			"count":20834,
			"type":"VEC2"
		},
		{
			"bufferView":11,
			"componentType":5123,
			"count":37380,
			"type":"SCALAR"
		},
		{
			"bufferView":12,
			"componentType":5126,
			"count":78957,
			"max":[
				137.8425750732422,
				186.07574462890625,
				39.89434051513672
			],
			"min":[
				-110.74742889404297,
				-234.6612548828125,
				-33.83066177368164
			],
			"type":"VEC3"
		},
		{
			"bufferView":13,
			"componentType":5126,
			"count":78957,
			"type":"VEC3"
		},
		{
			"bufferView":14,
			"componentType":5126,
			"count":78957,
			"type":"VEC2"
		},
		{
			"bufferView":15,
			"componentType":5125,
			"count":120960,
			"type":"SCALAR"
		},
		{
			"bufferView":16,
			"componentType":5126,
			"count":9460,
			"max":[
				308.37725830078125,
				262.64373779296875,
				89.31982421875
			],
			"min":[
				-259.6087341308594,
				-293.3102722167969,
				-80.36717224121094
			],
			"type":"VEC3"
		},
		{
			"bufferView":17,
			"componentType":5126,
			"count":9460,
			"type":"VEC3"
		},
		{
			"bufferView":18,
			"componentType":5126,
			"count":9460,
			"type":"VEC2"
		},
		{
			"bufferView":19,
			"componentType":5123,
			"count":17472,
			"type":"SCALAR"
		},
		{
			"bufferView":20,
			"componentType":5126,
			"count":37168,
			"max":[
				355.4217529296875,
				355.39093017578125,
				25.114992141723633
			],
			"min":[
				-355.41424560546875,
				-355.445068359375,
				-94.8355941772461
			],
			"type":"VEC3"
		},
		{
			"bufferView":21,
			"componentType":5126,
			"count":37168,
			"type":"VEC3"
		},
		{
			"bufferView":22,
			"componentType":5126,
			"count":37168,
			"type":"VEC2"
		},
		{
			"bufferView":23,
			"componentType":5123,
			"count":98304,
			"type":"SCALAR"
		}
	],
	"bufferViews":[
		{
			"buffer":0,
			"byteLength":2180616,
			"byteOffset":0,
			"target":34962
		},
		{
			"buffer":0,
			"byteLength":2180616,
			"byteOffset":2180616,
			"target":34962
		},
		{
			"buffer":0,
			"byteLength":1453744,
			"byteOffset":4361232,
			"target":34962
		},
		{
			"buffer":0,
			"byteLength":913920,
			"byteOffset":5814976,
			"target":34963
		},
		{
			"buffer":0,
			"byteLength":1883544,
			"byteOffset":6728896,
			"target":34962
		},
		{
			"buffer":0,
			"byteLength":1883544,
			"byteOffset":8612440,
			"target":34962
		},
		{
			"buffer":0,
			"byteLength":1255696,
			"byteOffset":10495984,
			"target":34962
		},
		{
			"buffer":0,
			"byteLength":836304,
			"byteOffset":11751680,
			"target":34963
		},
		{
			"buffer":0,
			"byteLength":250008,
			"byteOffset":12587984,
			"target":34962
		},
		{
			"buffer":0,
			"byteLength":250008,
			"byteOffset":12837992,
			"target":34962
		},
		{
			"buffer":0,
			"byteLength":166672,
			"byteOffset":13088000,
			"target":34962
		},
		{
			"buffer":0,
			"byteLength":74760,
			"byteOffset":13254672,
			"target":34963
		},
		{
			"buffer":0,
			"byteLength":947484,
			"byteOffset":13329432,
			"target":34962
		},
		{
			"buffer":0,
			"byteLength":947484,
			"byteOffset":14276916,
			"target":34962
		},
		{
			"buffer":0,
			"byteLength":631656,
			"byteOffset":15224400,
			"target":34962
		},
		{
			"buffer":0,
			"byteLength":483840,
			"byteOffset":15856056,
			"target":34963
		},
		{
			"buffer":0,
			"byteLength":113520,
			"byteOffset":16339896,
			"target":34962
		},
		{
			"buffer":0,
			"byteLength":113520,
			"byteOffset":16453416,
			"target":34962
		},
		{
			"buffer":0,
			"byteLength":75680,
			"byteOffset":16566936,
			"target":34962
		},
		{
			"buffer":0,
			"byteLength":34944,
			"byteOffset":16642616,
			"target":34963
		},
		{
			"buffer":0,
			"byteLength":446016,
			"byteOffset":16677560,
			"target":34962
		},
		{
			"buffer":0,
			"byteLength":446016,
			"byteOffset":17123576,
			"target":34962
		},
		{
			"buffer":0,
			"byteLength":297344,
			"byteOffset":17569592,
			"target":34962
		},
		{
			"buffer":0,
			"byteLength":196608,
			"byteOffset":17866936,
			"target":34963
		}
	],
	"samplers":[
		{
			"magFilter":9729,
			"minFilter":9987
		}
	],
	"buffers":[
		{
			"byteLength":18063544,
			"uri":"Island.bin"
		}
	]
}
