{
	"asset":{
		"generator":"Khronos glTF Blender I/O v4.2.70",
		"version":"2.0"
	},
	"extensionsUsed":[
		"KHR_materials_specular"
	],
	"scene":0,
	"scenes":[
		{
			"name":"Scene",
			"nodes":[
				0,
				1,
				2,
				3,
				4,
				5,
				6,
				7,
				8
			]
		}
	],
	"nodes":[
		{
			"camera":0,
			"name":"Camera",
			"rotation":[
				-0.08037993311882019,
				-0.06397432833909988,
				0.010509593412280083,
				0.9946537613868713
			],
			"scale":[
				6.2846479415893555,
				6.284646511077881,
				6.284646511077881
			],
			"translation":[
				7.358891487121582,
				21.20357322692871,
				127.74563598632812
			]
		},
		{
			"mesh":0,
			"name":"grass",
			"rotation":[
				0.70710688829422,
				0,
				0,
				0.7071066498756409
			],
			"scale":[
				0.2304190993309021,
				0.2304191291332245,
				0.2304191291332245
			],
			"translation":[
				-2.806711435317993,
				8.368165969848633,
				-2.95833158493042
			]
		},
		{
			"mesh":1,
			"name":"palm leaves",
			"rotation":[
				0.70710688829422,
				0,
				0,
				0.7071066498756409
			],
			"scale":[
				0.2304190993309021,
				0.2304191291332245,
				0.2304191291332245
			],
			"translation":[
				-17.233684539794922,
				54.65382385253906,
				-1.0926214456558228
			]
		},
		{
			"mesh":2,
			"name":"palm stems",
			"rotation":[
				0.70710688829422,
				0,
				0,
				0.7071066498756409
			],
			"scale":[
				0.2304190993309021,
				0.2304191291332245,
				0.2304191291332245
			],
			"translation":[
				-12.097099304199219,
				22.257610321044922,
				-1.12881338596344
			]
		},
		{
			"mesh":3,
			"name":"plants",
			"rotation":[
				0.70710688829422,
				0,
				0,
				0.7071066498756409
			],
			"scale":[
				0.2304190993309021,
				0.2304191291332245,
				0.2304191291332245
			],
			"translation":[
				4.080843925476074,
				14.293244361877441,
				2.605703830718994
			]
		},
		{
			"mesh":4,
			"name":"rocks",
			"rotation":[
				0.70710688829422,
				0,
				0,
				0.7071066498756409
			],
			"scale":[
				0.2304190993309021,
				0.2304191291332245,
				0.2304191291332245
			],
			"translation":[
				14.894485473632812,
				16.432613372802734,
				0.625714898109436
			]
		},
		{
			"mesh":5,
			"name":"terrain",
			"rotation":[
				0.70710688829422,
				0,
				0,
				0.7071066498756409
			],
			"scale":[
				0.2304190993309021,
				0.2304191291332245,
				0.2304191291332245
			],
			"translation":[
				9.615699768066406,
				7.404695510864258,
				1.4019501209259033
			]
		},
		{
			"mesh":6,
			"name":"Person",
			"rotation":[
				0,
				-0.7071068286895752,
				0.7071068286895752,
				3.090862321641907e-08
			],
			"scale":[
				1.049680471420288,
				1.0496803522109985,
				1.0496803522109985
			],
			"translation":[
				13.758651733398438,
				10.687507629394531,
				106.97640991210938
			]
		},
		{
			"mesh":7,
			"name":"Plane",
			"scale":[
				-311.65899658203125,
				-311.65899658203125,
				-311.65899658203125
			]
		}
	],
	"cameras":[
		{
			"name":"Camera",
			"perspective":{
				"aspectRatio":1.7777777777777777,
				"yfov":1,
				"zfar":100,
				"znear":0.10000000149011612
			},
			"type":"perspective"
		}
	],
	"materials":[
		{
			"doubleSided":true,
			"extensions":{
				"KHR_materials_specular":{
					"specularFactor":0
				}
			},
			"name":"material_1_grass.001",
			"pbrMetallicRoughness":{
				"baseColorTexture":{
					"index":0
				},
				"metallicFactor":0
			}
		},
		{
			"doubleSided":true,
			"extensions":{
				"KHR_materials_specular":{
					"specularFactor":0
				}
			},
			"name":"material_1_palm_leaves.001",
			"pbrMetallicRoughness":{
				"baseColorTexture":{
					"index":1
				},
				"metallicFactor":0
			}
		},
		{
			"doubleSided":true,
			"extensions":{
				"KHR_materials_specular":{
					"specularFactor":0
				}
			},
			"name":"material_1_palm_stems.001",
			"pbrMetallicRoughness":{
				"baseColorTexture":{
					"index":2
				},
				"metallicFactor":0
			}
		},
		{
			"doubleSided":true,
			"extensions":{
				"KHR_materials_specular":{
					"specularFactor":0
				}
			},
			"name":"material_1_plants.001",
			"pbrMetallicRoughness":{
				"baseColorTexture":{
					"index":3
				},
				"metallicFactor":0
			}
		},
		{
			"doubleSided":true,
			"extensions":{
				"KHR_materials_specular":{
					"specularFactor":0
				}
			},
			"name":"material_1_rocks.001",
			"pbrMetallicRoughness":{
				"baseColorTexture":{
					"index":4
				},
				"metallicFactor":0
			}
		},
		{
			"doubleSided":true,
			"extensions":{
				"KHR_materials_specular":{
					"specularFactor":0
				}
			},
			"name":"material_1.001",
			"pbrMetallicRoughness":{
				"baseColorTexture":{
					"index":5
				},
				"metallicFactor":0
			}
		},
		{
			"doubleSided":true,
			"extensions":{
				"KHR_materials_specular":{
					"specularFactor":0
				}
			},
			"name":"default.002",
			"pbrMetallicRoughness":{
				"baseColorTexture":{
					"index":6
				},
				"metallicFactor":0
			}
		}
	],
	"meshes":[
		{
			"name":"grass",
			"primitives":[
				{
					"attributes":{
						"POSITION":0,
						"NORMAL":1,
						"TEXCOORD_0":2
					},
					"indices":3,
					"material":0
				}
			]
		},
		{
			"name":"palm leaves",
			"primitives":[
				{
					"attributes":{
						"POSITION":4,
						"NORMAL":5,
						"TEXCOORD_0":6
					},
					"indices":7,
					"material":1
				}
			]
		},
		{
			"name":"palm stems",
			"primitives":[
				{
					"attributes":{
						"POSITION":8,
						"NORMAL":9,
						"TEXCOORD_0":10
					},
					"indices":11,
					"material":2
				}
			]
		},
		{
			"name":"plants",
			"primitives":[
				{
					"attributes":{
						"POSITION":12,
						"NORMAL":13,
						"TEXCOORD_0":14
					},
					"indices":15,
					"material":3
				}
			]
		},
		{
			"name":"rocks",
			"primitives":[
				{
					"attributes":{
						"POSITION":16,
						"NORMAL":17,
						"TEXCOORD_0":18
					},
					"indices":19,
					"material":4
				}
			]
		},
		{
			"name":"terrain",
			"primitives":[
				{
					"attributes":{
						"POSITION":20,
						"NORMAL":21,
						"TEXCOORD_0":22
					},
					"indices":23,
					"material":5
				}
			]
		},
		{
			"name":"Person",
			"primitives":[
				{
					"attributes":{
						"POSITION":24,
						"NORMAL":25
					},
					"indices":26,
					"material":6
				}
			]
		},
		{
			"name":"Plane",
			"primitives":[
				{
					"attributes":{
						"POSITION":27,
						"NORMAL":28,
						"TEXCOORD_0":29
					},
					"indices":30,
					"material":5
				}
			]
		}
	],
	"textures":[
		{
			"sampler":0,
			"source":0
		},
		{
			"sampler":0,
			"source":1
		},
		{
			"sampler":0,
			"source":2
		},
		{
			"sampler":0,
			"source":3
		},
		{
			"sampler":0,
			"source":4
		},
		{
			"sampler":0,
			"source":5
		},
		{
			"sampler":0,
			"source":6
		}
	],
	"images":[
		{
			"mimeType":"image/jpeg",
			"name":"grs1",
			"uri":"grs1.jpg"
		},
		{
			"mimeType":"image/jpeg",
			"name":"lv1",
			"uri":"lv1.jpg"
		},
		{
			"mimeType":"image/jpeg",
			"name":"plvs1c",
			"uri":"plvs1c.jpg"
		},
		{
			"mimeType":"image/jpeg",
			"name":"arl1b",
			"uri":"arl1b.jpg"
		},
		{
			"mimeType":"image/jpeg",
			"name":"rc1",
			"uri":"rc1.jpg"
		},
		{
			"mimeType":"image/jpeg",
			"name":"snd1",
			"uri":"snd1.jpg"
		},
		{
			"mimeType":"image/png",
			"name":"base",
			"uri":"base.png"
		}
	],
	"accessors":[
		{
			"bufferView":0,
			"componentType":5126,
			"count":192215,
			"max":[
				180.46400451660156,
				236.8791961669922,
				19.763486862182617
			],
			"min":[
				-100.85100555419922,
				-239.2388153076172,
				-34.06431579589844
			],
			"type":"VEC3"
		},
		{
			"bufferView":1,
			"componentType":5126,
			"count":192215,
			"type":"VEC3"
		},
		{
			"bufferView":2,
			"componentType":5126,
			"count":192215,
			"type":"VEC2"
		},
		{
			"bufferView":3,
			"componentType":5125,
			"count":228480,
			"type":"SCALAR"
		},
		{
			"bufferView":4,
			"componentType":5126,
			"count":195400,
			"max":[
				184.35548400878906,
				216.8151397705078,
				62.845733642578125
			],
			"min":[
				-131.70211791992188,
				-211.70785522460938,
				-71.80227661132812
			],
			"type":"VEC3"
		},
		{
			"bufferView":5,
			"componentType":5126,
			"count":195400,
			"type":"VEC3"
		},
		{
			"bufferView":6,
			"componentType":5126,
			"count":195400,
			"type":"VEC2"
		},
		{
			"bufferView":7,
			"componentType":5125,
			"count":209076,
			"type":"SCALAR"
		},
		{
			"bufferView":8,
			"componentType":5126,
			"count":25754,
			"max":[
				133.84353637695312,
				183.2222137451172,
				66.4581298828125
			],
			"min":[
				-121.02747344970703,
				-182.58078002929688,
				-179.50718688964844
			],
			"type":"VEC3"
		},
		{
			"bufferView":9,
			"componentType":5126,
			"count":25754,
			"type":"VEC3"
		},
		{
			"bufferView":10,
			"componentType":5126,
			"count":25754,
			"type":"VEC2"
		},
		{
			"bufferView":11,
			"componentType":5123,
			"count":37380,
			"type":"SCALAR"
		},
		{
			"bufferView":12,
			"componentType":5126,
			"count":103771,
			"max":[
				137.8425750732422,
				186.07574462890625,
				39.89434051513672
			],
			"min":[
				-110.74742889404297,
				-234.6612548828125,
				-33.83066177368164
			],
			"type":"VEC3"
		},
		{
			"bufferView":13,
			"componentType":5126,
			"count":103771,
			"type":"VEC3"
		},
		{
			"bufferView":14,
			"componentType":5126,
			"count":103771,
			"type":"VEC2"
		},
		{
			"bufferView":15,
			"componentType":5125,
			"count":120960,
			"type":"SCALAR"
		},
		{
			"bufferView":16,
			"componentType":5126,
			"count":10539,
			"max":[
				308.37725830078125,
				262.64373779296875,
				89.31982421875
			],
			"min":[
				-259.6087341308594,
				-293.3102722167969,
				-80.36717224121094
			],
			"type":"VEC3"
		},
		{
			"bufferView":17,
			"componentType":5126,
			"count":10539,
			"type":"VEC3"
		},
		{
			"bufferView":18,
			"componentType":5126,
			"count":10539,
			"type":"VEC2"
		},
		{
			"bufferView":19,
			"componentType":5123,
			"count":17472,
			"type":"SCALAR"
		},
		{
			"bufferView":20,
			"componentType":5126,
			"count":40650,
			"max":[
				355.4217529296875,
				355.39093017578125,
				25.114992141723633
			],
			"min":[
				-355.41424560546875,
				-355.445068359375,
				-94.8355941772461
			],
			"type":"VEC3"
		},
		{
			"bufferView":21,
			"componentType":5126,
			"count":40650,
			"type":"VEC3"
		},
		{
			"bufferView":22,
			"componentType":5126,
			"count":40650,
			"type":"VEC2"
		},
		{
			"bufferView":23,
			"componentType":5123,
			"count":98304,
			"type":"SCALAR"
		},
		{
			"bufferView":24,
			"componentType":5126,
			"count":24461,
			"max":[
				5.842548847198486,
				2.1025567054748535,
				10.006355285644531
			],
			"min":[
				-5.842451572418213,
				-1.6675444841384888,
				-10.734343528747559
			],
			"type":"VEC3"
		},
		{
			"bufferView":25,
			"componentType":5126,
			"count":24461,
			"type":"VEC3"
		},
		{
			"bufferView":26,
			"componentType":5123,
			"count":146754,
			"type":"SCALAR"
		},
		{
			"bufferView":27,
			"componentType":5126,
			"count":4,
			"max":[
				1,
				0,
				1
			],
			"min":[
				-1,
				0,
				-1
			],
			"type":"VEC3"
		},
		{
			"bufferView":28,
			"componentType":5126,
			"count":4,
			"type":"VEC3"
		},
		{
			"bufferView":29,
			"componentType":5126,
			"count":4,
			"type":"VEC2"
		},
		{
			"bufferView":30,
			"componentType":5123,
			"count":6,
			"type":"SCALAR"
		}
	],
	"bufferViews":[
		{
			"buffer":0,
			"byteLength":2306580,
			"byteOffset":0,
			"target":34962
		},
		{
			"buffer":0,
			"byteLength":2306580,
			"byteOffset":2306580,
			"target":34962
		},
		{
			"buffer":0,
			"byteLength":1537720,
			"byteOffset":4613160,
			"target":34962
		},
		{
			"buffer":0,
			"byteLength":913920,
			"byteOffset":6150880,
			"target":34963
		},
		{
			"buffer":0,
			"byteLength":2344800,
			"byteOffset":7064800,
			"target":34962
		},
		{
			"buffer":0,
			"byteLength":2344800,
			"byteOffset":9409600,
			"target":34962
		},
		{
			"buffer":0,
			"byteLength":1563200,
			"byteOffset":11754400,
			"target":34962
		},
		{
			"buffer":0,
			"byteLength":836304,
			"byteOffset":13317600,
			"target":34963
		},
		{
			"buffer":0,
			"byteLength":309048,
			"byteOffset":14153904,
			"target":34962
		},
		{
			"buffer":0,
			"byteLength":309048,
			"byteOffset":14462952,
			"target":34962
		},
		{
			"buffer":0,
			"byteLength":206032,
			"byteOffset":14772000,
			"target":34962
		},
		{
			"buffer":0,
			"byteLength":74760,
			"byteOffset":14978032,
			"target":34963
		},
		{
			"buffer":0,
			"byteLength":1245252,
			"byteOffset":15052792,
			"target":34962
		},
		{
			"buffer":0,
			"byteLength":1245252,
			"byteOffset":16298044,
			"target":34962
		},
		{
			"buffer":0,
			"byteLength":830168,
			"byteOffset":17543296,
			"target":34962
		},
		{
			"buffer":0,
			"byteLength":483840,
			"byteOffset":18373464,
			"target":34963
		},
		{
			"buffer":0,
			"byteLength":126468,
			"byteOffset":18857304,
			"target":34962
		},
		{
			"buffer":0,
			"byteLength":126468,
			"byteOffset":18983772,
			"target":34962
		},
		{
			"buffer":0,
			"byteLength":84312,
			"byteOffset":19110240,
			"target":34962
		},
		{
			"buffer":0,
			"byteLength":34944,
			"byteOffset":19194552,
			"target":34963
		},
		{
			"buffer":0,
			"byteLength":487800,
			"byteOffset":19229496,
			"target":34962
		},
		{
			"buffer":0,
			"byteLength":487800,
			"byteOffset":19717296,
			"target":34962
		},
		{
			"buffer":0,
			"byteLength":325200,
			"byteOffset":20205096,
			"target":34962
		},
		{
			"buffer":0,
			"byteLength":196608,
			"byteOffset":20530296,
			"target":34963
		},
		{
			"buffer":0,
			"byteLength":293532,
			"byteOffset":20726904,
			"target":34962
		},
		{
			"buffer":0,
			"byteLength":293532,
			"byteOffset":21020436,
			"target":34962
		},
		{
			"buffer":0,
			"byteLength":293508,
			"byteOffset":21313968,
			"target":34963
		},
		{
			"buffer":0,
			"byteLength":48,
			"byteOffset":21607476,
			"target":34962
		},
		{
			"buffer":0,
			"byteLength":48,
			"byteOffset":21607524,
			"target":34962
		},
		{
			"buffer":0,
			"byteLength":32,
			"byteOffset":21607572,
			"target":34962
		},
		{
			"buffer":0,
			"byteLength":12,
			"byteOffset":21607604,
			"target":34963
		}
	],
	"samplers":[
		{
			"magFilter":9729,
			"minFilter":9987
		}
	],
	"buffers":[
		{
			"byteLength":21607616,
			"uri":"Island.bin"
		}
	]
}
